<svg xmlns="http://www.w3.org/2000/svg" fill="none" viewBox="-0.5 -0.5 16 16" stroke-linecap="round" stroke-linejoin="round" stroke="#fff" id="Train--Streamline-Mynaui" height="16" width="16">
  <desc>
    Train Streamline Icon: https://streamlinehq.com
  </desc>
  <path d="M10 11.25H5m5 0 1.25 1.875m-1.25 -1.875a1.875 1.875 0 0 0 1.875 -1.875v-2.5M5 11.25l-1.25 1.875m1.25 -1.875a1.875 1.875 0 0 1 -1.875 -1.875v-2.5m1.875 1.875v0.625m5 -0.625v0.625M3.125 6.875h4.375m-4.375 0V3.75m4.375 3.125h4.375m-4.375 0V3.75m4.375 3.125V3.75m-4.375 0H3.125m4.375 0h4.375M3.125 3.75a1.875 1.875 0 0 1 1.875 -1.875h5a1.875 1.875 0 0 1 1.875 1.875" stroke-width="1"></path>
</svg>